<svg id="北邮_logo" data-name="北邮 logo" xmlns="http://www.w3.org/2000/svg" viewBox="0 0 565 565">
    <defs>
        <style>
            .cls-1 {
            fill: #039;
            }

            .cls-2,
            .cls-3 {
            fill: none;
            stroke: #039;
            stroke-miterlimit: 10;
            }

            .cls-2 {
            stroke-width: 2px;
            }

            .cls-3 {
            stroke-width: 4px;
            }
        </style>
    </defs>
    <path id="中间部分" class="cls-1"
          d="M152,434.4s18.5-19.6,24.1-25c56.9,42.9,123.8,47.3,177.3,22.5l-10.9-24.4,15.7-7,10.9,23c49-29.5,83.2-85.4,81.7-159l33-3.1C494.3,461.2,272.8,543,152,434.4ZM62.2,290.3l.2,5.7H376.2q-19.1-38.4-38-76.8c-1.8-3.8-3.6-8.5-2.3-9.5s2.2.1,3.6.9c10.6,6.3,21.6,24.8,22.3,26,4.6,7.7,8.2,13.9,10.3,17.6l19.7-8.8a131.2,131.2,0,0,0-20.5-34.9,122.5,122.5,0,0,0-19.1-18.7,1.5,1.5,0,0,1-.1-2.2l5.8-5.5a1.3,1.3,0,0,1,1.9-.1,141.8,141.8,0,0,1,25,24.9,144.3,144.3,0,0,1,18.6,30.8l23.3-11.9a155.9,155.9,0,0,0-20.3-36.6,151.5,151.5,0,0,0-30.3-30.4,1.5,1.5,0,0,1-.2-2.2c2.6-2.9,4.3-5.6,6.5-8.4a1.6,1.6,0,0,1,2.2-.3c10.5,9.2,24.2,22.1,36.2,39.9a206.5,206.5,0,0,1,26.3,55.5l33.1-8.4c-2.8-11-26.4-100.3-114.6-139.1-70.6-31-154.9-17.4-216.3,34.7,11.5,2.9,71.7,18.7,92.1,69.6,3.5,8.6,14.4,35.8,1.3,55.4s-44.9,21.3-57.9,20.6-39.9-14.3-61.6-12.5c-27,4-28.3,17.5-50.8,24.7A68.4,68.4,0,0,1,62.2,290.3Zm282.4,80.1-15.7,7.1,7.1,15.6,15.6-7ZM334,346.8l-15.7,7,7.1,15.7,15.6-7Zm-11.1-24.6-15.6,7.1,7,15.6,15.6-7Z"/>
    <path id="BUPT_英文_" data-name="BUPT（英文）" class="cls-1"
          d="M126,452.7c2.5-.3,4.7.6,7.4,3l5.9,5.2L109,495.4l-5.9-5.2c-2.7-2.3-3.8-4.3-3.8-6.9s1.1-4.9,4.2-8.5,4.3-4.3,7.5-4.6a6.8,6.8,0,0,1,3.3.5,6.5,6.5,0,0,1-1.1-3.4c-.1-3.5,1.9-6.3,4.1-8.7C121,454.3,123.3,453,126,452.7Zm-20.7,34.9,3.3,2.8,11.2-12.8-3.2-2.8c-3-2.6-6.2-2.3-10.3,2.4S102.4,485,105.3,487.6Zm13.5-15.3,3.2,2.8L134.3,461l-3.2-2.8c-3.1-2.7-6.2-2.8-11.1,2.7S115.6,469.5,118.8,472.3Zm1.4-28.9-33.9,31L76.1,463.1l2.5-2.3,7.8,8.6,13.2-12L92.8,450l2.5-2.3,6.8,7.4L115.3,443l-7.9-8.6,2.6-2.3Zm-14.8-17.1L69.1,454.5l-2.2-2.9,36.2-28.2Zm-14.7-17a9.3,9.3,0,0,1,5.8,4.1,8.4,8.4,0,0,1,1.2,7.6l-3.6-.8a5.1,5.1,0,0,0-.4-4.9c-1.7-2.6-5.1-3.3-8.9-.8L54.7,434.4l-2-3,30.1-19.9C85.5,409.7,88.2,408.9,90.7,409.3Zm-3.9-10.5-40,22.5L45,418.2l40.1-22.5ZM74.3,373.5,46.6,399.4l32.7-14.7,1.5,3.3L38.9,406.9l-1.5-3.4,27.7-25.8L32.4,392.4l-1.5-3.3,41.9-18.8Zm-6.7-19.9a8,8,0,0,1-.6,7c-2.1,3.6-5.4,5-18.9,9.2s-16.9,5.1-20.7,3.4A9.4,9.4,0,0,1,23.3,361a12.3,12.3,0,0,1,7.3-5.2l1.1,3.4c-3.5,1.2-6.9,3.3-5.6,7.6a4.6,4.6,0,0,0,2.8,3.1c2.7,1.1,5.3.6,18.1-3.5s15.3-5.2,17-7.6a4.9,4.9,0,0,0,.4-4.2c-1-2.9-4.1-4.4-8.2-3.1l-10.8,3.4,1.6,5.2-3,1-2.8-8.7,13.9-4.3C61.6,346,66.2,349,67.6,353.6ZM55.9,313a8.9,8.9,0,0,1,3.6,6,8.7,8.7,0,0,1-1.6,6.8,10.6,10.6,0,0,1-6.9,3.8l-36,5.6-.5-3.6,36.3-5.7c3.8-.6,5.8-3.4,5.4-6.4s-3.2-4.9-7.1-4.3l-36.3,5.7-.6-3.6,36-5.7A10.5,10.5,0,0,1,55.9,313Zm.2-25.7-35.2,14,35.8-1.8.2,3.6L11,305.4l-.2-3.7L46,287.8l-35.8,1.8L10,286l45.9-2.3Zm.1-11.1-46-1.4v-3.6l46,1.4Zm1.2-20.1-.3,3.6-46.6,4.8.3-4,39.7-3.3L12.2,246.3l.4-4Zm1.7-12.8-45.2-8.6,2.9-15,3.4.7L18,231.8l17.5,3.3,1.8-9.8,3.4.6-1.9,9.8,17.6,3.4,2.2-11.4,3.3.6Zm10-39.8H47.5l-1.7,5.4L65.5,215l-1.1,3.4L20.6,204.6l2.5-8.2c1.6-5.1,4.8-8.4,15-5.2,6.8,2.1,9.5,4.9,9.8,8.7H70.2Zm-42.7-6.2-1.5,4.9,17.7,5.5,1.5-4.8c1.3-4.2-1.4-6.5-7.1-8.2S27.8,193.1,26.4,197.3Zm51.8-21c.8,2,.7,4.4-.6,7.3a9.3,9.3,0,0,1-5.1,5.2c-2.7.9-5,.5-9.6-1.6l1.5-3.3c3.2,1.5,5.1,1.9,6.9,1.3a6.2,6.2,0,0,0,3.5-7.5c-.9-2-2.6-3.1-5.8-4.6-5.3-2.4-7.5-2.5-10.5.2l-3.8,3.4c-3.6,3.3-6.6,3.4-12.9.5-3.5-1.7-6-3.9-7-6.6a9.8,9.8,0,0,1,5.5-11.7c3-1,5.6-.4,9.2,1.3L48,163.5c-2.6-1.2-4.5-1.7-6.4-1.1a4.6,4.6,0,0,0-3.2,2.9,5,5,0,0,0-.3,4.1c.7,1.8,2.6,3.3,5.2,4.5,4.8,2.2,6.5,2.1,9.8-.8l3.7-3.4c3.8-3.4,7.5-2.8,13.5,0C74.7,171.7,77.2,173.7,78.2,176.3Zm7.4-9.3L45.8,144.1l1.8-3.2,39.9,22.9ZM62.5,124.2l34.9,24.2-2.1,3L60.4,127.1l-4.2,6.1-2.8-2,10.4-15,2.8,2Zm33.9-5.6L111,131.1l-2.4,2.8L94,121.3,68.8,109.7l2.6-3,19.5,9.6L78.5,98.4l2.7-3.1Zm46.7-20.2a8,8,0,0,1-3.5,6.2,8.2,8.2,0,0,1-6.8,1.9c-4-.7-6.5-3.3-15.2-14.4S106.9,78,107.2,73.9a8.4,8.4,0,0,1,3.4-6.2,8.6,8.6,0,0,1,6.8-1.9c4.1.7,6.6,3.3,15.3,14.4S143.4,94.3,143.1,98.4ZM116.8,69.3a4.8,4.8,0,0,0-4.1,1.1,4.7,4.7,0,0,0-2,3.7c0,2.9,1.4,5.2,9.7,15.8s10.2,12.4,13,13.1a4.7,4.7,0,0,0,4.1-1.1,5.1,5.1,0,0,0,2.1-3.7c0-2.9-1.4-5.2-9.7-15.8S119.6,70,116.8,69.3ZM134,55.9l9.4,15.2,8.5-5.3,1.8,2.9L145.2,74l11.2,18.1L153.3,94,129.1,54.9l13-8,1.8,2.9Zm53-2.1-4.7,1.9,7.5,18.9-3.3,1.3-17-42.7,8.1-3.2c4.8-1.9,9.5-1.6,13.5,8.4S192.7,51.6,187,53.8Zm-8.1-20.6L174.2,35l6.9,17.5,4.7-1.9c4.1-1.6,4.1-5.2,1.9-10.8S183,31.6,178.9,33.2Zm46.8,27.3A9.4,9.4,0,0,1,213,63.9c-3.4-2.3-4.7-5.7-8.4-19.2s-4.3-17.2-2.4-20.9a8.2,8.2,0,0,1,5.6-4.3,8,8,0,0,1,7,.9c3.5,2.2,4.7,5.7,8.4,19.2S227.5,56.8,225.7,60.5ZM212.9,23.4a4.8,4.8,0,0,0-4.3-.6,5,5,0,0,0-3.3,2.6c-1.1,2.7-.7,5.3,2.8,18.3s4.5,15.5,6.9,17.2a4.4,4.4,0,0,0,4.1.6,4.7,4.7,0,0,0,3.4-2.6c1.1-2.7.7-5.3-2.8-18.3S215.2,25.1,212.9,23.4Zm39.2,32.2c-1.2,1.8-3.2,3-6.3,3.5s-5.3.1-7.2-1.3-3.2-3.9-4.1-8.9l3.6-.6c.6,3.5,1.3,5.3,2.8,6.5a5.5,5.5,0,0,0,4.3.9c2-.4,3.2-1.1,3.9-2.2s1.1-3.9.5-7.4c-.9-5.7-2.1-7.6-6-8.6l-5-1.2c-4.7-1.2-6.4-3.6-7.5-10.4-.7-3.9-.2-7.2,1.5-9.5a8.4,8.4,0,0,1,5.9-3.4,8.4,8.4,0,0,1,6.9,1.4c2.5,1.9,3.4,4.4,4,8.3l-3.6.6c-.4-2.8-1.1-4.6-2.6-5.9a4.8,4.8,0,0,0-4.2-1,5.2,5.2,0,0,0-3.6,2c-1.1,1.7-1.2,4-.8,6.8.9,5.3,1.9,6.7,6.1,7.7l4.9,1.3c5,1.2,6.5,4.6,7.6,11.1C254,50.1,253.7,53.2,252.1,55.6Zm16.3-42.3,3.3,42.4-3.6.2-3.3-42.4-7.3.6-.3-3.4,18.2-1.4.3,3.4Zm35,39.4c-1.4,1.6-3.6,2.5-6.8,2.5s-5.3-.7-6.9-2.4-2.6-4.4-2.6-9.4h3.6c.1,3.5.4,5.4,1.8,6.8a5.3,5.3,0,0,0,4.1,1.5,5.6,5.6,0,0,0,4.2-1.5c1.4-1.6,1.7-3.6,1.7-7.3,0-5.7-.9-7.8-4.7-9.4l-4.6-2c-4.5-1.9-5.8-4.5-5.8-11.4-.1-4,.9-7.1,2.9-9.1a8.7,8.7,0,0,1,6.4-2.5,8.8,8.8,0,0,1,6.6,2.5c2.2,2.2,2.7,4.9,2.7,8.9h-3.7c0-2.9-.3-4.8-1.6-6.3a5.2,5.2,0,0,0-4-1.7,4.8,4.8,0,0,0-3.8,1.5c-1.4,1.4-1.9,3.8-1.9,6.6,0,5.3.7,6.8,4.7,8.6l4.7,2c4.8,1.9,5.7,5.6,5.7,12.2C306.1,47.6,305.4,50.7,303.4,52.7Zm41.8,10.7.7-12.8L336,48.1l-5.3,11.6-3.8-.9,20.7-42.2,3.3.9-2,46.9Zm2.3-39.7L337.6,45l8.5,2.1Zm20.9,47.6.8-37.9L357,67.1l-3.5-1.3,15.7-43.1,3.4,1.2-.7,37.8L384.1,28l3.4,1.3L371.8,72.5Zm26.5,9.2a8.7,8.7,0,0,1-7-.5l-8-4,20.4-41.2,8,4a8.6,8.6,0,0,1,4.7,5.3c1.1,3.9-.1,7.1-6.3,19.6S398.7,79,394.9,80.5ZM409.5,45a5.3,5.3,0,0,0-2.8-3.2L402,39.5l-17.4,35,4.7,2.3a5.1,5.1,0,0,0,4.3.3c2.6-1.1,4-3.3,9.9-15.1S410.2,47.8,409.5,45Zm35.3,19.8L420.1,99.4l-2.9-2.1,24.7-34.6-6-4.3,2-2.7,14.9,10.6-2,2.7ZM433,109.4l30.8-34.2,11.3,10.2L472.8,88l-8.6-7.8-12,13.2,7.5,6.7-2.3,2.6L450,96l-12,13.3,8.6,7.7-2.3,2.6Zm18.6,17.7,34.5-30.3,2.4,2.7-31.9,28.1,7.7,8.7-2.6,2.3Zm15.6,18.6,37.7-26.2,8.7,12.5-2.8,1.9-6.7-9.5-14.6,10.2,5.8,8.2-2.9,2-5.7-8.3-14.6,10.2,6.6,9.6-2.8,1.9Zm22.5,33.7a9.1,9.1,0,0,1-5.4-11.3c1.4-3.9,4.5-5.8,16.9-12.4s15.8-8,19.8-7a8.5,8.5,0,0,1,5.5,4.5,8.1,8.1,0,0,1,.7,6.7c-.9,2.6-3.2,4.8-6.2,6.5l-1.7-3.2c2-1.1,3.8-2.5,4.5-4.4a4.5,4.5,0,0,0-.4-4,4.3,4.3,0,0,0-3.2-2.6c-2.9-.6-5.4.4-17.3,6.7s-14.1,7.8-15.3,10.4a4.8,4.8,0,0,0,.3,4.2,4.5,4.5,0,0,0,3.2,2.6c1.9.5,4.1-.2,6.1-1.3l1.7,3.2C495.6,179.7,492.4,180.4,489.7,179.4Zm10.2,22.8a8.3,8.3,0,0,1-4.9-5.1,8.1,8.1,0,0,1,.1-7c1.9-3.7,5.1-5.4,18.2-10.5s16.6-6.2,20.5-4.7a8.3,8.3,0,0,1,4.9,5,8.9,8.9,0,0,1-.1,7.2c-1.9,3.7-5.2,5.3-18.3,10.4S503.8,203.7,499.9,202.2Zm35.5-16.7a4.9,4.9,0,0,0,.1-4.3,4.7,4.7,0,0,0-3-3c-2.7-.8-5.3-.2-17.9,4.8s-14.9,6.2-16.3,8.6a4.9,4.9,0,0,0-.2,4.3,5.2,5.2,0,0,0,3,3c2.8.8,5.4.2,17.9-4.8S533.9,187.9,535.4,185.5Zm-29.9,43.6,35.8-9.4H516.2l-.6-2.1,21.1-12.1-35,9.3L501,212l44.4-11.7.8,2.8-24.3,14,28,.3.8,2.8-44.4,11.7Zm4.5,26.5,36.6-5.2-24.9-2.9-.3-2.1,22.4-9.5L507.9,241l-.4-2.9,45.5-6.5.4,2.9-25.7,11.1,27.8,3.6.4,2.8-45.5,6.5Zm3.5,25a8.6,8.6,0,0,1-2.8-6.4,8.8,8.8,0,0,1,2.4-6.5,10.7,10.7,0,0,1,7.3-2.9l36.4-1v3.6l-36.7,1.1c-3.9.1-6.2,2.6-6.1,5.6s2.5,5.4,6.5,5.3l36.7-1.1v3.6L521,283A10.3,10.3,0,0,1,513.5,280.6Zm-3.4,24.6,36.7-9.4L511,293l.3-3.6,45.8,3.6-.2,3.6L520.2,306l35.7,2.7-.3,3.6-45.8-3.5Zm-1.3,10.2,45.4,7-.6,3.6-45.4-7.1Zm-3.3,24.8a9.1,9.1,0,0,1-.8-6.4,8.7,8.7,0,0,1,4.1-5.7c3.7-2,7.3-1.5,21,1.6s17.1,4.3,19.5,7.7a8.4,8.4,0,0,1,1.2,6.9,8.1,8.1,0,0,1-3.8,5.6c-2.3,1.4-5.6,1.5-9,.8l.8-3.5c2.3.5,4.6.6,6.3-.3a4.9,4.9,0,0,0,2.4-3.4,4.7,4.7,0,0,0-.8-4.1c-1.8-2.2-4.3-3.1-17.4-6.1s-15.8-3.4-18.4-2.1a4.6,4.6,0,0,0-2.5,3.4,4.8,4.8,0,0,0,.6,4c1.2,1.6,3.3,2.5,5.6,3l-.8,3.5C509.9,344.3,507,342.7,505.5,340.2Zm-9.8,25.2,12.7,1.6,3.7-10.4L501,350.1l1.4-4,39.9,25.1-1.2,3.4-46.8-5.3Zm39.6,5.2L515,358.5l-3.1,9Zm-8.6,29.8-38.5-18.1,1.7-3.6,38.4,18.2,3.4-7.2,3.1,1.5L526.4,409l-3.1-1.5Zm-44-7.5,40.2,22.4-2,3.4-40.1-22.4ZM470,417.5a9.5,9.5,0,0,1,1.7-7.4,9.3,9.3,0,0,1,6.2-4.4c4.2-.7,7.4,1,19.1,8.8s14.5,10.1,15.4,14.3a9.5,9.5,0,0,1-1.6,7.4,9.9,9.9,0,0,1-6.2,4.4c-4.3.7-7.5-1-19.2-8.8S470.9,421.7,470,417.5Zm34.2,19.4a5.6,5.6,0,0,0,3.7-2.6,5,5,0,0,0,.9-4.4c-.8-2.9-2.8-4.6-14-12.1s-13.6-8.7-16.5-8.4a5.2,5.2,0,0,0-3.7,2.6,5.1,5.1,0,0,0-1,4.4c.8,2.9,2.8,4.6,14,12.1S501.2,437.2,504.2,436.9ZM453.3,435l35.9,12.8-27.5-23,2.5-3,35.3,29.4-2.5,3.1-35.9-12.8,27.5,22.9-2.5,3L450.8,438Zm-15.4,18.7c.1-2.2,1.1-4.5,3.5-6.9s4.7-3.5,7.1-3.5,5,1.2,8.6,4.8l-2.8,2.7c-2.5-2.5-4.1-3.6-6.2-3.5a6.1,6.1,0,0,0-4.2,2c-1.6,1.5-2.2,2.9-2.1,4.2s1.2,3.9,3.7,6.5c4,4.1,6.1,4.9,10.2,3.2l5-2.1c4.8-2,7.6-1.1,12.5,3.8,2.7,2.8,4.2,5.8,4,8.8a9.6,9.6,0,0,1-3.2,6.6c-2.2,2.1-4.5,3.2-6.8,3.2s-5.5-1.5-8.3-4.4l2.8-2.7c2,2,3.6,3.1,5.7,3.2a5.6,5.6,0,0,0,4.3-1.8,6,6,0,0,0,1.9-3.9c0-2.1-1.2-4.2-3.2-6.2-3.7-3.8-5.4-4.3-9.7-2.5l-5,2.1c-5,2.2-8.2.3-12.9-4.5S437.8,456.7,437.9,453.7Z"/>
    <path id="北京邮电大学" class="cls-1"
          d="M187.2,523.8h0c-3.3,6.3-6.1,9.6-8.5,10.2h-.8a3.3,3.3,0,0,1-1.9-.6l-3.5-1.8a4.5,4.5,0,0,1-2.7-2.5q-.7-2.1.9-5.4l18-34.9c.7-.6,1.2-.7,1.6-.5s.5.7.5,1.5h-.1l-6.8,13.2a42.6,42.6,0,0,0,12.7-5.4h.1c.7.1,1.2.3,1.3.7s.1,1-.5,1.8h0a45.9,45.9,0,0,1-15.1,6L173,524.6c-.7,1.5-.9,2.6-.6,3.4a2.2,2.2,0,0,0,1.4,1.2l3.6,1.8a1.2,1.2,0,0,0,1.2.3c1.6-.5,3.8-3.3,6.5-8.5h.1c.6-.4,1-.5,1.4-.3S187.1,523.1,187.2,523.8Zm46.1-6.1a4.9,4.9,0,0,1,0,3.8l-2,6.8c-.3,1.8-1,2.9-2,3.4a3.2,3.2,0,0,1-3,0l-8.6-2.4L214,542.8a4,4,0,0,1-1.6,2.7,3.2,3.2,0,0,1-1.4.3,5.2,5.2,0,0,1-2.1-.4,17.1,17.1,0,0,1-4.3-3.3h-.1a2.6,2.6,0,0,1,.1-2,1.6,1.6,0,0,1,1.4-.5h.2c3.1,3.2,4.5,3.6,5.1,3.4s.5-.5.5-1.1l3.7-13.2-9.2-2.6a2.9,2.9,0,0,1-2.3-1c-.7-1.1-.7-2.8-.1-5.2l1.8-6.5c1-2.6,2.7-3.6,5-3L231,516A3.8,3.8,0,0,1,233.3,517.7Zm-2.3,1.9a1.9,1.9,0,0,0-1.4-.9l-19.1-5.4h-.9c-.9,0-1.5.5-1.8,1.6l-1.7,6.1a2.9,2.9,0,0,0-.1,2.1.9.9,0,0,0,.7.3h.1l20.3,5.6a1.4,1.4,0,0,0,1.2.2c.5-.2.7-.8.9-1.8l1.7-6.1A1.8,1.8,0,0,0,231,519.6Zm8.1-8.3-15.3-4.2a41.2,41.2,0,0,0-.4-6.2h-.1c-.3-.7-.7-1-1.2-1s-.8.5-1.2,1.3h0a30.8,30.8,0,0,1,.4,5.1l-14.7-4.1h-.3a2.2,2.2,0,0,0-.7,2.6h.1l32.5,9h.2a1.5,1.5,0,0,0,1.2-1.1,1.6,1.6,0,0,0-.5-1.5Zm-30.2,20v-.2c.2-.9.2-1.5-.2-1.8s-.7-.3-1.3,0h-.1a80.1,80.1,0,0,1-11.2,9.5h-.1c-.6.7-.8,1.2-.6,1.7a1.2,1.2,0,0,0,1.1.8h.2A71.1,71.1,0,0,0,208.9,531.3Zm15.2,2.3H224a1.8,1.8,0,0,0-1.6-.4c-.4.2-.6.8-.7,1.8h.1c1.4,3.9,2.8,8.7,4.2,14.3h.1a2.1,2.1,0,0,0,1.1.5h.3c.5-.1.8-.7.9-1.7h0A107.9,107.9,0,0,0,224.1,533.6Zm-41.5-47.8c0-.8-.1-1.3-.5-1.5s-.9-.1-1.5.5l-5.1,9.7-9.1-4.7h0c-.8.2-1.2.4-1.4.9s-.2.9.1,1.6h0l9.1,4.6-6.7,13.1a58.2,58.2,0,0,1-14.6,4h-.1c-.7.6-1.1,1.1-1,1.5s.3.8.9,1.1h.1a42.3,42.3,0,0,0,12.9-3.1l-5.5,10.7h0c0,.9.1,1.4.5,1.5h.3a2.1,2.1,0,0,0,1.2-.5h.1l20.3-39.5Zm195.7,17.6,24.4-12.8a.6.6,0,0,1,.8,0c.8.3,1.9,2,2.8,8h.1c.6.6,1.1.8,1.5.7a1.3,1.3,0,0,0,.9-1h0c-1.2-6.2-2.7-9.7-4.7-10.6a2.3,2.3,0,0,0-2.4.1l-3.2,1.7a64.4,64.4,0,0,0-1.1-9h0c-.6-.6-1.1-.9-1.6-.7s-.6.4-.8,1h0a34.7,34.7,0,0,1,.8,10l-4.6,2.4a74.4,74.4,0,0,0-8.9-7.2h-.2c-.5.1-.9.3-1,.7a1.8,1.8,0,0,0,.2,1.7h.1a82,82,0,0,1,7.5,6l-6.9,3.6a44.5,44.5,0,0,0-8-5.5h-.2a1.2,1.2,0,0,0-.8.9,1.9,1.9,0,0,0,.3,1.4h.1c2.6,1.7,4.7,3.1,6.2,4.3l-3.2,1.7a3.2,3.2,0,0,0-1.7,2.1,5.4,5.4,0,0,0,.8,3.2l3.3,6.3h.1a2.6,2.6,0,0,0,1,.4h.4a2,2,0,0,0,.6-1.4h0l-3-5.7C377,504.3,377.7,503.7,378.3,503.4Zm37.1,2.2a2.5,2.5,0,0,0-1.3-.9H414l-13,6.8a10,10,0,0,0-1.9-1.2c-.6-.2-.9-.4-1-.7a1.6,1.6,0,0,1,.6-1.3c2.7-4.1,4.1-6.8,4.1-8.1a2.5,2.5,0,0,0-1.3-2c-.8-.4-2.1-.2-3.8.7L382.2,507h0a2.2,2.2,0,0,0,0,1.6,1.5,1.5,0,0,0,1.2.8h.1l15.3-8c.5-.2.7-.2.7-.1s.3.9-3.6,6c-1,1.8-.8,3.3.8,4.4l1.9.9-14.9,7.7h0a2.2,2.2,0,0,0,0,1.6,1.7,1.7,0,0,0,1.3.8h.1l15.9-8.4q5.4,5.4,5.1,8.7a4.2,4.2,0,0,1-1.9,3c-1.8,1.2-4.1,1.4-6.8.5h-.3a1.8,1.8,0,0,0-.6,1.3c0,.4.3.8.8,1.3h0a11.2,11.2,0,0,0,3.5.6,10,10,0,0,0,4.7-1.2,6.2,6.2,0,0,0,3.2-4.5c.4-2.9-1.4-6.6-5.4-10.9l12.1-6.3h0A1.9,1.9,0,0,0,415.4,505.6Zm-39.6,32.6h-.1c-8.4-1.7-16.6-9.8-24.5-24.3l16.2-4.6h.2a2.1,2.1,0,0,0,.4-1.6c-.1-.5-.5-.8-1.2-1.1h-.1l-16.3,4.6-2.7-9.7h-.1c-.5-.6-1-.9-1.4-.8s-.7.6-.8,1.4h0l2.7,9.7-14.4,4.1h-.2a1.7,1.7,0,0,0-.4,1.6,1.9,1.9,0,0,0,1.2,1.1h.1l14.5-4.1c2.8,14.5.5,25.7-7,33.2h-.1a2.6,2.6,0,0,0,.1,2,1.6,1.6,0,0,0,1.2.4h.4c7.1-7,10-17.1,8.7-29.8,7.1,11.9,15,18.8,23.5,20.8h.2a2.3,2.3,0,0,0,.8-1.4A1.7,1.7,0,0,0,375.8,538.2ZM264.9,520.9,262.4,550c0,1.7-.4,2.9-1.2,3.5a2.1,2.1,0,0,1-1.6.5h-.8l-11.6-1a2.5,2.5,0,0,1-2.1-.8c-.7-.7-1-1.9-.8-3.7l2.4-29.2a4.6,4.6,0,0,1,1.1-3,2.9,2.9,0,0,1,2.6-.9l4.6.4.7-8.1h0a1.6,1.6,0,0,1,1.2-.8c.5,0,.8.4,1.1,1h0l-.7,8.1,4.7.4C264.4,516.8,265.3,518.4,264.9,520.9Zm-17.2,14.6-1,12.4a2.7,2.7,0,0,0,.3,2,1.7,1.7,0,0,0,1,.3l4.1.3,1.2-14.5Zm12.5,13.6h0l1-12.4-5.6-.5-1.2,14.5,4,.3a1.4,1.4,0,0,0,1.3,0,2.9,2.9,0,0,0,.5-1.9Zm-9.4-30.8a1.7,1.7,0,0,0-1.3.4,3,3,0,0,0-.5,1.6l-1.1,12.4,5.6.4,1.3-14.5Zm6.3.5-1.2,14.5,5.6.5,1-12.4a2.3,2.3,0,0,0-.1-1.7,1.7,1.7,0,0,0-1.3-.5Zm70.7,22.5c.6,5,.1,8.2-1.4,9.9a3.7,3.7,0,0,1-3.1,1.1l-11.6,1.1h-.8a2.8,2.8,0,0,1-1.6-.5c-.9-.6-1.4-1.9-1.6-3.8l-.6-6.5-10.7,1a2.6,2.6,0,0,1-2.2-.3q-1.3-.9-1.5-3.6l-1.9-19.7a5.1,5.1,0,0,1,.6-3.2,2.7,2.7,0,0,1,2.3-1.3l10.8-1-.5-5.3h0c.3-.8.6-1.2,1-1.2s.8.3,1.3,1h0l.5,5.3,10.7-1a3.5,3.5,0,0,1,2.6.6,4.5,4.5,0,0,1,1.1,3.3L323,537c.3,2.8-.8,4.3-3.2,4.5l-10.4,1,.5,5.6a3.8,3.8,0,0,0,.9,2.3,1.6,1.6,0,0,0,1.2.1l10.7-1a1.9,1.9,0,0,0,1.9-.6c1.1-1,1.3-3.5.8-7.4h0c.3-.8.7-1.2,1.1-1.2s.8.3,1.2,1Zm-23.1-23.8-10.1.9c-.7.1-1.5.4-1.4,2.3l.7,6.8,11.7-1.1Zm1.1,11.8-11.7,1.1.8,8.4c.1,1,.4,1.7.8,1.9s.5.2,1,.1h0l10.1-1Zm13.1-11a2.1,2.1,0,0,0-.4-1.7,1.4,1.4,0,0,0-1.3-.3l-10.1.9.8,9,11.7-1.1Zm1.6,20.1c.3-.4.3-1,.1-2l-.7-8.4-11.7,1.1,1,10.5,10.1-.9A1.7,1.7,0,0,0,320.5,538.4Zm-42-27.8-6.8-.6c-2.2-.2-3.4,1.2-3.6,3.9l-3.4,40.3h0c.3.8.6,1.2,1,1.2h.1c.4,0,.8-.3,1.2-1l3.3-39.6a3.4,3.4,0,0,1,.6-1.6,1.6,1.6,0,0,1,1.2-.4l5.5.5a.6.6,0,0,1,.6.3,2.5,2.5,0,0,1-.1,1.9,65.9,65.9,0,0,1-4.5,12.7,5.7,5.7,0,0,0,0,4.1c3.2,5.5,4.6,9.8,4.1,12.6s-.5,3.4-1.4,4.2a3.4,3.4,0,0,1-2.7.7,9,9,0,0,1-3.7-2.2h-.1a1.6,1.6,0,0,0-1.2.4c-.4.3-.5.9-.5,1.8h.1c.9,1.2,2.7,2.2,5.4,2.9s5.5-1.7,6.3-6-.6-9.8-4.2-15.7a2,2,0,0,1,.2-2.1,84.4,84.4,0,0,0,4.9-13.9,4.7,4.7,0,0,0-.2-3.2A3.2,3.2,0,0,0,278.5,510.6Z"/>
    <circle id="内圈" class="cls-2" cx="284.2" cy="283.1" r="222.5"/>
    <circle id="外圈" class="cls-3" cx="282.5" cy="282.5" r="280.5"/>
</svg>